<svg version="1.1" xmlns="http://www.w3.org/2000/svg" viewBox="0 0 263 58">
<style type="text/css">
	.st0{fill:#999999;}
	.st1{fill:#004171;}
	.st2{fill:#FCC51D;}
</style>
<path class="st0" d="M80.3,55.4h1.4l-4.1-10.7h-1.2l-4.1,10.7h1.4l1-2.8h4.5L80.3,55.4z M77.1,46.5l1.8,5h-3.6L77.1,46.5z
	 M88.3,44.7h-1.4v10.7h6.5v-1.2h-5.1L88.3,44.7L88.3,44.7z M94.4,51.4c-0.1,1.1,0.3,2.1,1,3c0.7,0.7,1.6,1.2,2.6,1.1
	c0.7,0,1.3-0.2,1.9-0.5c0.6-0.3,1-0.8,1.3-1.4c0.3-0.6,0.5-1.4,0.4-2.1v-0.1c0.1-1.1-0.3-2.1-1-3c-0.7-0.7-1.6-1.2-2.6-1.1
	c-0.7,0-1.3,0.2-1.9,0.5c-0.6,0.3-1,0.8-1.3,1.4C94.6,49.9,94.4,50.6,94.4,51.4L94.4,51.4L94.4,51.4z M96.4,49.2
	c0.4-0.5,1-0.8,1.6-0.8c0.6,0,1.3,0.3,1.6,0.8c0.4,0.6,0.7,1.4,0.6,2.1c0,0.8-0.2,1.6-0.6,2.3c-0.7,0.9-2,1.1-2.9,0.4
	c-0.1-0.1-0.3-0.2-0.4-0.4c-0.4-0.6-0.6-1.4-0.6-2.1C95.7,50.7,95.9,49.9,96.4,49.2L96.4,49.2z M103.9,54.4c0.5,0.7,1.4,1.1,2.3,1.1
	c0.8,0,1.7-0.3,2.2-0.9v0.7c0,0.6-0.2,1.1-0.6,1.6c-0.4,0.4-1,0.6-1.5,0.6c-0.8,0-1.6-0.4-2.1-1.1l-0.7,0.8c0.3,0.4,0.7,0.8,1.3,1
	c0.5,0.2,1.1,0.4,1.7,0.4c0.9,0,1.8-0.3,2.4-0.9c0.6-0.6,1-1.5,0.9-2.4v-7.7h-1.2l-0.1,0.9c-1.1-1.2-2.9-1.4-4.2-0.3
	c-0.1,0.1-0.3,0.2-0.4,0.4c-0.6,0.9-0.9,1.9-0.9,2.9C102.9,52.4,103.2,53.5,103.9,54.4L103.9,54.4z M104.9,49.2
	c0.4-0.5,0.9-0.8,1.5-0.8c0.8,0,1.5,0.4,1.9,1.1v3.6c-0.3,0.7-1.1,1.2-1.9,1.2c-0.6,0-1.2-0.3-1.5-0.8c-0.4-0.6-0.6-1.4-0.5-2.1
	C104.3,50.7,104.5,49.9,104.9,49.2L104.9,49.2z M113.2,47.5h-1.4v7.9h1.4L113.2,47.5L113.2,47.5z M112,45.9c0.2,0.2,0.4,0.2,0.6,0.2
	c0.4,0,0.8-0.3,0.8-0.7c0,0,0-0.1,0-0.1c0-0.2-0.1-0.4-0.2-0.6c-0.2-0.2-0.4-0.2-0.6-0.2c-0.2,0-0.4,0.1-0.6,0.2
	c-0.1,0.2-0.2,0.4-0.2,0.6C111.7,45.6,111.8,45.7,112,45.9z M119.5,54.1c-0.4,0.2-0.8,0.3-1.2,0.3c-0.5,0-1-0.1-1.3-0.4
	c-0.3-0.3-0.5-0.7-0.5-1.1h-1.4c0,0.5,0.1,0.9,0.4,1.3c0.3,0.4,0.7,0.7,1.1,0.9c0.5,0.2,1.1,0.3,1.7,0.3c0.8,0,1.6-0.2,2.2-0.6
	c0.5-0.4,0.9-1,0.8-1.7c0-0.4-0.1-0.8-0.3-1.1c-0.2-0.3-0.6-0.6-0.9-0.8c-0.5-0.2-1.1-0.4-1.6-0.5c-0.5-0.1-1-0.2-1.4-0.5
	c-0.3-0.2-0.4-0.4-0.4-0.7c0-0.3,0.1-0.6,0.4-0.8c0.3-0.2,0.7-0.3,1.2-0.3c0.4,0,0.9,0.1,1.2,0.4c0.3,0.2,0.5,0.6,0.5,1h1.4
	c0-0.7-0.3-1.4-0.8-1.8c-0.6-0.5-1.4-0.7-2.2-0.7c-0.8,0-1.5,0.2-2.1,0.7c-0.5,0.4-0.8,1-0.8,1.6c0,0.4,0.1,0.7,0.3,1
	c0.2,0.3,0.5,0.6,0.9,0.7c0.5,0.2,1.1,0.4,1.6,0.5c0.5,0.1,1,0.3,1.4,0.5c0.3,0.2,0.4,0.5,0.4,0.9C120,53.6,119.8,53.9,119.5,54.1
	L119.5,54.1z M124.6,47.5h-1.4v7.9h1.4V47.5L124.6,47.5z M123.3,45.9c0.2,0.2,0.4,0.2,0.6,0.2c0.2,0,0.4-0.1,0.6-0.2
	c0.1-0.1,0.2-0.3,0.2-0.5c0-0.2-0.1-0.4-0.2-0.6c-0.2-0.2-0.4-0.2-0.6-0.2c-0.2,0-0.4,0.1-0.6,0.2c-0.1,0.2-0.2,0.4-0.2,0.6
	C123.1,45.6,123.2,45.7,123.3,45.9z M128.3,53.7c-0.4-0.6-0.6-1.4-0.6-2.1v-0.3c-0.1-0.8,0.1-1.5,0.6-2.2c0.4-0.5,1-0.8,1.6-0.7
	c0.5,0,0.9,0.2,1.3,0.5c0.3,0.3,0.6,0.8,0.6,1.3h1.3c0-0.8-0.4-1.5-0.9-2.1c-0.6-0.5-1.4-0.8-2.2-0.8c-0.7,0-1.3,0.2-1.9,0.5
	c-0.5,0.3-1,0.8-1.2,1.4c-0.3,0.6-0.4,1.3-0.4,2.1v0.2c-0.1,1.1,0.3,2.1,1,3c0.7,0.7,1.6,1.1,2.6,1.1c0.5,0,1.1-0.1,1.5-0.4
	c0.5-0.2,0.9-0.6,1.2-1c0.3-0.4,0.4-0.8,0.5-1.3h-1.3c0,0.4-0.3,0.8-0.6,1.1c-0.4,0.3-0.8,0.4-1.3,0.4
	C129.3,54.5,128.7,54.2,128.3,53.7L128.3,53.7z M138.8,54.1c-0.4,0.2-0.8,0.3-1.2,0.3c-0.5,0-1-0.1-1.3-0.4
	c-0.3-0.3-0.5-0.7-0.5-1.1h-1.4c0,0.5,0.1,0.9,0.4,1.3c0.3,0.4,0.7,0.7,1.1,0.9c0.5,0.2,1.1,0.3,1.7,0.3c0.8,0,1.6-0.2,2.2-0.6
	c0.5-0.4,0.9-1,0.9-1.7c0-0.4-0.1-0.8-0.3-1.1c-0.2-0.3-0.6-0.6-0.9-0.8c-0.5-0.2-1.1-0.4-1.6-0.5c-0.5-0.1-1-0.2-1.4-0.5
	c-0.3-0.2-0.4-0.4-0.4-0.7c0-0.3,0.1-0.6,0.4-0.8c0.3-0.2,0.7-0.3,1.2-0.3c0.4,0,0.9,0.1,1.2,0.4c0.3,0.2,0.5,0.6,0.5,1h1.4
	c0-0.7-0.3-1.4-0.8-1.8c-0.6-0.5-1.4-0.7-2.2-0.7c-0.8,0-1.5,0.2-2.1,0.7c-0.5,0.4-0.8,1-0.8,1.6c0,0.4,0.1,0.7,0.3,1
	c0.2,0.3,0.5,0.6,0.9,0.7c0.5,0.2,1.1,0.4,1.6,0.5c0.5,0.1,1,0.3,1.4,0.5c0.3,0.2,0.4,0.5,0.4,0.9C139.2,53.6,139.1,53.9,138.8,54.1
	L138.8,54.1z M152.7,52c0,0.7-0.3,1.4-0.8,1.8c-0.5,0.4-1.2,0.6-1.8,0.5c-0.8,0-1.6-0.4-2-1c-0.5-0.8-0.8-1.8-0.7-2.8v-1
	c-0.1-1,0.2-2,0.8-2.8c0.5-0.7,1.3-1,2.1-1c0.6,0,1.2,0.2,1.7,0.6c0.5,0.5,0.7,1.2,0.8,1.9h1.4c-0.1-1-0.5-1.9-1.2-2.6
	c-0.8-0.7-1.7-1-2.7-0.9c-0.8,0-1.6,0.2-2.3,0.6c-0.7,0.4-1.2,1-1.5,1.7c-0.4,0.8-0.5,1.7-0.5,2.6v1c-0.1,1.3,0.3,2.6,1.1,3.6
	c0.7,0.9,1.9,1.4,3,1.4c1,0.1,2-0.3,2.8-0.9c0.7-0.7,1.2-1.6,1.3-2.6H152.7z M155.5,51.4c-0.1,1.1,0.3,2.1,1,3
	c0.7,0.7,1.6,1.2,2.6,1.1c0.7,0,1.3-0.2,1.9-0.5c0.6-0.3,1-0.8,1.3-1.4c0.3-0.6,0.5-1.4,0.4-2.1v-0.1c0.1-1.1-0.3-2.1-1-3
	c-0.7-0.7-1.6-1.2-2.6-1.1c-0.7,0-1.3,0.2-1.9,0.5c-0.6,0.3-1,0.8-1.3,1.4C155.6,49.9,155.4,50.6,155.5,51.4
	C155.5,51.3,155.5,51.4,155.5,51.4z M157.4,49.2c0.4-0.5,1-0.8,1.6-0.8c0.6,0,1.3,0.3,1.6,0.8c0.4,0.6,0.7,1.4,0.6,2.1
	c0,0.8-0.2,1.6-0.6,2.3c-0.7,0.9-2,1.1-2.9,0.4c-0.1-0.1-0.3-0.2-0.4-0.4c-0.4-0.6-0.6-1.4-0.6-2.1C156.8,50.7,157,49.9,157.4,49.2
	L157.4,49.2z M164.4,47.5v7.9h1.4v-5.8c0.3-0.7,1-1.2,1.8-1.1c0.8-0.1,1.6,0.5,1.7,1.3c0,0.1,0,0.3,0,0.4v5.2h1.4v-5.3
	c0-0.5,0.2-0.9,0.6-1.2c0.3-0.3,0.8-0.5,1.3-0.5c0.5,0,0.9,0.1,1.3,0.4c0.3,0.4,0.4,0.8,0.4,1.3v5.2h1.4v-5.3c0-1.8-0.9-2.8-2.7-2.8
	c-0.5,0-1,0.1-1.5,0.4c-0.4,0.2-0.8,0.5-1,0.9c-0.4-0.9-1.3-1.4-2.3-1.3c-0.9,0-1.8,0.3-2.4,1l0-0.9L164.4,47.5L164.4,47.5z
	 M184.2,51.4c0.1-1.1-0.2-2.1-0.8-3c-0.5-0.7-1.4-1.1-2.3-1.1c-0.9,0-1.7,0.3-2.3,1l-0.1-0.9h-1.2v11h1.4v-3.8
	c0.6,0.6,1.4,1,2.3,0.9c0.9,0,1.7-0.4,2.2-1.1c0.6-0.9,0.9-1.9,0.8-2.9L184.2,51.4L184.2,51.4z M182.3,53.7
	c-0.4,0.5-0.9,0.8-1.5,0.8c-0.8,0-1.5-0.4-1.9-1.1v-3.8c0.4-0.7,1.1-1.1,1.8-1.1c0.6,0,1.2,0.3,1.6,0.8c0.4,0.6,0.6,1.4,0.6,2.1
	C182.9,52.2,182.7,53,182.3,53.7L182.3,53.7z M192.3,55.4v-0.1c-0.2-0.6-0.3-1.1-0.3-1.7v-3.6c0-0.7-0.3-1.4-0.8-1.9
	c-0.6-0.5-1.4-0.7-2.1-0.7c-0.5,0-1.1,0.1-1.6,0.3c-0.4,0.2-0.8,0.5-1.1,0.9c-0.3,0.3-0.4,0.7-0.4,1.1h1.4c0-0.4,0.2-0.7,0.5-0.9
	c0.4-0.3,0.8-0.4,1.2-0.4c0.5,0,0.9,0.1,1.3,0.4c0.3,0.3,0.4,0.7,0.4,1.1v0.6h-1.3c-0.9-0.1-1.9,0.2-2.6,0.7c-0.6,0.4-1,1.2-0.9,1.9
	c0,0.6,0.3,1.3,0.8,1.7c0.5,0.5,1.2,0.7,1.9,0.7c0.9,0,1.7-0.3,2.3-1c0,0.3,0.1,0.6,0.2,0.8L192.3,55.4L192.3,55.4z M187.5,54
	c-0.3-0.2-0.4-0.6-0.4-1c0-1,0.8-1.5,2.5-1.5h1.1v1.6c-0.2,0.4-0.5,0.7-0.8,0.9c-0.4,0.2-0.8,0.3-1.2,0.3
	C188.2,54.4,187.8,54.2,187.5,54L187.5,54z M194.1,47.5v7.9h1.4v-5.6c0.2-0.4,0.4-0.7,0.8-0.9c0.3-0.2,0.7-0.4,1.2-0.4
	c0.4,0,0.9,0.1,1.2,0.4c0.3,0.4,0.4,0.8,0.4,1.3v5.2h1.4v-5.2c0-1.9-0.9-2.8-2.5-2.8c-0.9,0-1.8,0.4-2.4,1.1l0-1L194.1,47.5
	L194.1,47.5z M203,47.5h-1.5l2.8,7.8l-0.3,0.8c-0.1,0.4-0.3,0.8-0.6,1c-0.3,0.2-0.7,0.3-1.1,0.3l-0.4,0v1.1l0.5,0.1l0.3,0
	c1.1,0,2.1-0.9,2.4-2l3.2-9.1h-1.4l-1.8,5.9L203,47.5z"/>
<path class="st1" d="M97.3,10.7l1.1-8H76.1l-4,28.4h22.3l1.1-7.9H83.4l0.3-2.6h10.6l1.1-7.4H84.8l0.3-2.5L97.3,10.7L97.3,10.7z
	 M100.3,2.7l5.5,13.7l-10,14.7h10.8l5.5-8.7l3.1,8.7H126l-5.9-14.7l9.5-13.7h-10.8l-5,8l-2.7-8C111.1,2.7,100.3,2.7,100.3,2.7z
	 M141.9,2.2c-3.3,0-6.5,0.2-9.8,0.7c0,0,0,0-4,28.3h10.2l1-7.3c7.5,0.6,16.9-2.6,16.9-11.9C156.2,4.3,148.5,2.2,141.9,2.2L141.9,2.2
	z M141.2,10.2c1.5-0.2,4.8,0.1,4.8,2.6c0,3.3-3.9,3.5-5.6,3.4L141.2,10.2z M185,10.8c0-6.8-6.9-8.6-14.1-8.6c-3.5,0-7,0.3-10.5,0.8
	l-3.9,28.1h10l1.3-8.9c0.2,0,0.3,0,0.5,0c3.1,7.3,5.2,9.5,9.3,9.5c1.9,0,3.9-0.3,5.7-0.8l0.9-6.8c-1.8,0-4.2,0.5-6.8-3.4
	C181.6,19.2,185,16.5,185,10.8L185,10.8z M169.5,15.6c-0.3,0-0.6,0-0.9,0l0.8-5.7c0.4-0.1,0.8-0.1,1.2-0.1c1.7,0,4.1,0.5,4.1,2.5
	C174.7,15.1,171.4,15.6,169.5,15.6z M211.8,10.7l1.1-8h-22.3l-4,28.4H209l1.1-7.9H198l0.3-2.6h10.6l1.1-7.4h-10.6l0.3-2.5
	L211.8,10.7L211.8,10.7z M224.9,10.9c0-0.8,1.1-1,2.6-1c2.6,0,5.2,0.6,7.6,1.7l2.7-7.9c-3.2-1-6.5-1.6-9.8-1.6
	c-8.2,0-13.3,4.6-13.3,11.1c0,9.7,11.3,7.4,11.3,9.7c0,0.4-0.4,1-2.7,1c-2.9,0-5.7-0.8-8.2-2.3l-2.7,7.9c3.3,1.4,6.9,2.2,10.5,2.1
	c8.4,0,13.7-3.7,13.7-10.6C236.4,11.1,224.9,13.4,224.9,10.9L224.9,10.9z M250.2,10.9c0-0.8,1.1-1,2.6-1c2.6,0,5.2,0.6,7.6,1.7
	l2.7-7.9c-3.2-1-6.5-1.6-9.8-1.6c-8.2,0-13.3,4.6-13.3,11.1c0,9.7,11.3,7.4,11.3,9.7c0,0.4-0.4,1-2.7,1c-2.9,0-5.7-0.8-8.2-2.3
	l-2.7,7.9c3.3,1.4,6.9,2.2,10.5,2.1c8.4,0,13.7-3.7,13.7-10.6C261.7,11.1,250.2,13.4,250.2,10.9L250.2,10.9z"/>
<path class="st2" d="M57.1,26.2c0,13.1-9.7,24-22.3,25.9c0.1-0.6,0.1-1.2,0.1-1.8c0,0-0.1-0.6-0.2-1.5c4.5-0.8,8.5-2.8,11.7-5.8
	c-0.2-0.2-0.4-0.4-0.6-0.6C45,41.3,46.1,40,46.1,39c0-1.1-2.1-1-2.2-1.7c-0.3-2.4,1.5-2.5,2.4-3.4c0.9-0.9-0.9-3.1-2.1-2.9
	c-1.2,0.1-4.6-0.6-4.3-3.2c0.4-3.2-4.1-2.9-4.7-4.4c-0.9-2.2,0.6-4.8,2.6-5.4c2.9-0.9,5.7-3.2,5.4-5.8c-0.2-2.9-1.6-5.6-3.8-7.2
	c-2.3-0.9-4.7-1.5-7.3-1.6c-2.3,0.1-4.3,0.6-4.2,1.7c0.2,2.6,7.5,3.2,6.3,5.6c-0.6,1.3-5.4,3-4.5,4.9c0.6,1.2,2,0.2,1.5,2.5
	c-0.2,1.1-1.2,3.1-2.6,3.2c-1.5,0.1-2.7-3.8-6.7-3.9c-1.9-0.1-4.6,3-2.3,5.1c1.4,1.3,4-1.6,4.7,0.7c0.5,1.6-0.1,4.9,2.4,6.3
	c0.9,0.5,2.3,0.9,3.7,1.7c-2.1,0.4-4.6,1.2-7.6,2.4l-2.5-0.7c1.1-0.9,2.8-1.5,2.3-3.4c-0.6-2.8-5.5-1.8-8.9-5.1
	c-1-1-3.2-4.5-3.2-8.6c-1.7,3.2-2.6,6.8-2.6,10.7c0,1.2,0.1,2.4,0.3,3.5c0,0-0.1,0-0.1,0C7,29.7,5.9,30,5,30.4
	c-0.2-1.3-0.3-2.7-0.3-4.1C4.6,11.8,16.4,0,30.9,0C45.4,0,57.1,11.8,57.1,26.2z M37.4,33.9L31,36.8l0.1-1.4l4.2-1.9
	c-0.6,0-1.2-0.1-1.8-0.1c-2.3,0-6.2,1.2-10.5,2.9L9.3,32.7c-1.3-0.3-2.7-0.1-3.8,0.6l-0.7,0.4c-0.7,0.4-0.7,1.4,0,1.8l8.3,5.4
	c-2,1-3.8,2-5.5,3l-4.2-2.2c-0.7-0.4-1.5-0.4-2.2-0.1l-0.4,0.2c-0.6,0.2-0.8,1-0.5,1.5l2.3,4.2l0,0c-0.9,0.8-1.4,1.4-1.4,1.8
	c0,1.3,1.6,1.6,3,1.6c2.5,0,35.8-7.6,35.8-14.5C39.9,34.9,39,34.3,37.4,33.9z M23.4,47.4l7.3-2.6c0.3-0.1,0.7,0.1,0.7,0.4l0.6,5.5
	c0.2,1.4-0.6,2.7-1.8,3.3l-0.7,0.3c-0.4,0.2-0.9,0.1-1.3-0.3l-5.1-5.8C22.9,47.9,23.1,47.5,23.4,47.4z"/>
</svg>
